<svg width="48" height="48" viewBox="0 0 48 48" fill="none" xmlns="http://www.w3.org/2000/svg">
  <defs>
    <clipPath id="bb-clip"><circle cx="24" cy="24" r="23"/></clipPath>
  </defs>
  <circle cx="24" cy="24" r="23" fill="#26262c"/>
  <g clip-path="url(#bb-clip)">
    <path d="M9 48 C9 38 15.5 33.5 24 33.5 C32.5 33.5 39 38 39 48 Z" fill="#bcbcc4"/>
    <circle cx="24" cy="24" r="8.6" fill="#d2d2d9"/>
  </g>
  <g transform="translate(22.5 15) rotate(-15)">
    <path d="M-10 4 C-10 -6 -5 -10 0 -10 C5 -10 10 -6 10 4 Z" fill="#15152a"/>
    <rect x="-10.5" y="3" width="21" height="4.6" rx="1.6" fill="#101024"/>
    <path d="M0 -8 C-2.6 -6 -2.6 -1.4 0 0.6 C2.6 -1.4 2.6 -6 0 -8 Z" fill="#f5f0e6"/>
    <circle cx="0" cy="-3.6" r="0.9" fill="#15152a"/>
    <circle cx="-4.6" cy="-3" r="0.85" fill="#f5f0e6"/>
    <circle cx="4.6" cy="-3" r="0.85" fill="#f5f0e6"/>
    <g stroke="#f5f0e6" stroke-width="1.1" fill="none" stroke-linecap="round">
      <path d="M-7.5 6.4 q1.7 -2.1 3.4 0"/>
      <path d="M-2.4 6.4 q1.7 -2.1 3.4 0"/>
      <path d="M2.7 6.4 q1.7 -2.1 3.4 0"/>
    </g>
  </g>
  <circle cx="24" cy="24" r="22.4" fill="none" stroke="#d9a441" stroke-width="1.4"/>
</svg>
