<svg width="48" height="48" viewBox="0 0 48 48" fill="none" xmlns="http://www.w3.org/2000/svg">
  <defs>
    <clipPath id="bb-clip"><circle cx="24" cy="24" r="23"/></clipPath>
    <linearGradient id="bb-dome" x1="0" y1="-10" x2="0" y2="7" gradientUnits="userSpaceOnUse">
      <stop offset="0" stop-color="#2a2a52"/>
      <stop offset="0.55" stop-color="#191934"/>
      <stop offset="1" stop-color="#0e0e22"/>
    </linearGradient>
    <linearGradient id="bb-band" x1="0" y1="3" x2="0" y2="8" gradientUnits="userSpaceOnUse">
      <stop offset="0" stop-color="#14142c"/>
      <stop offset="1" stop-color="#0a0a1c"/>
    </linearGradient>
    <radialGradient id="bb-badge" cx="0.35" cy="0.28" r="0.9">
      <stop offset="0" stop-color="#2f2f37"/>
      <stop offset="1" stop-color="#212127"/>
    </radialGradient>
  </defs>
  <circle cx="24" cy="24" r="23" fill="url(#bb-badge)"/>
  <g clip-path="url(#bb-clip)">
    <path d="M9 48 C9 38 15.5 33.5 24 33.5 C32.5 33.5 39 38 39 48 Z" fill="#bcbcc4"/>
    <circle cx="24" cy="24" r="8.6" fill="#d2d2d9"/>
    <ellipse cx="23" cy="18.5" rx="10" ry="3.2" fill="#000000" opacity="0.16"/>
  </g>
  <g transform="translate(22.5 15) rotate(-15)">
    <path d="M-10 4 C-10 -6 -5 -10 0 -10 C5 -10 10 -6 10 4 Z" fill="url(#bb-dome)"/>
    <rect x="-10.5" y="3" width="21" height="4.8" rx="1.7" fill="url(#bb-band)"/>
    <path d="M-7 -1.5 C-6 -6.5 -2.4 -8.8 0.6 -8.8" stroke="#3d3d70" stroke-width="1.1" fill="none" stroke-linecap="round" opacity="0.7"/>
    <g transform="translate(-5 -3.4) rotate(-12)">
      <path d="M0 -4.4 C-1.9 -2.6 -1.9 1.1 0 2.6 C1.9 1.1 1.9 -2.6 0 -4.4 Z" fill="#f5f0e6"/>
      <path d="M0 -3.4 L0 1.7" stroke="#c99a34" stroke-width="0.5" stroke-linecap="round"/>
    </g>
    <g transform="translate(0 -3.4)">
      <path d="M0 -4.4 C-1.9 -2.6 -1.9 1.1 0 2.6 C1.9 1.1 1.9 -2.6 0 -4.4 Z" fill="#f5f0e6"/>
      <path d="M0 -3.4 L0 1.7" stroke="#c99a34" stroke-width="0.5" stroke-linecap="round"/>
    </g>
    <g transform="translate(5 -3.4) rotate(12)">
      <path d="M0 -4.4 C-1.9 -2.6 -1.9 1.1 0 2.6 C1.9 1.1 1.9 -2.6 0 -4.4 Z" fill="#f5f0e6"/>
      <path d="M0 -3.4 L0 1.7" stroke="#c99a34" stroke-width="0.5" stroke-linecap="round"/>
    </g>
    <g stroke="#f5f0e6" stroke-width="1" fill="none" stroke-linecap="round">
      <path d="M-8.6 6.6 q1.5 -1.9 3 0"/>
      <path d="M-4 6.6 q1.5 -1.9 3 0"/>
      <path d="M0.6 6.6 q1.5 -1.9 3 0"/>
      <path d="M5.2 6.6 q1.5 -1.9 3 0"/>
    </g>
    <g fill="#d9a441">
      <circle cx="-7.1" cy="6.7" r="0.5"/>
      <circle cx="-2.5" cy="6.7" r="0.5"/>
      <circle cx="2.1" cy="6.7" r="0.5"/>
      <circle cx="6.7" cy="6.7" r="0.5"/>
    </g>
  </g>
  <circle cx="24" cy="24" r="22.4" fill="none" stroke="#d9a441" stroke-width="1.4"/>
</svg>
