<svg width="48" height="48" viewBox="0 0 48 48" fill="none" xmlns="http://www.w3.org/2000/svg">
  <defs>
    <linearGradient id="tile" x1="0" y1="0" x2="1" y2="1">
      <stop offset="0" stop-color="#f8efd9"/><stop offset="1" stop-color="#e7cd90"/>
    </linearGradient>
    <linearGradient id="dome" x1="0" y1="0" x2="0" y2="1">
      <stop offset="0" stop-color="#23233f"/><stop offset="1" stop-color="#0d0d1a"/>
    </linearGradient>
  </defs>
  <rect x="1.5" y="1.5" width="45" height="45" rx="13" fill="url(#tile)"/>
  <path d="M11 35 C11 18 16.5 11 24 11 C31.5 11 37 18 37 35 Z" fill="url(#dome)"/>
  <path d="M24 15 C21.4 17.1 21.4 22 24 24.4 C26.6 22 26.6 17.1 24 15 Z" fill="#f8efd9"/>
  <circle cx="24" cy="19.6" r="1.15" fill="#14142a"/>
  <circle cx="18.5" cy="21" r="1" fill="#f8efd9"/>
  <circle cx="29.5" cy="21" r="1" fill="#f8efd9"/>
  <g stroke="#f8efd9" stroke-width="1.4" stroke-linecap="round" stroke-linejoin="round" fill="none">
    <path d="M19 32.6 l2.2 -3 l2.2 3"/><path d="M25 32.6 l2.2 -3 l2.2 3"/><path d="M31 32.6 l2.2 -3 l2.2 3"/>
  </g>
  <path d="M7 37.5 C4.3 31 6.2 23.2 12.7 21.2 C14 22.7 15 23.8 16.6 24.9 C11.4 27 10.4 33 14.2 37.5 Z" fill="#ffffff"/>
  <path d="M12.6 21.7 C11 25.6 11.2 31.5 13.9 36.6" stroke="#d8cfb0" stroke-width="0.7" fill="none"/>
  <circle cx="9.6" cy="35.8" r="1.5" fill="#ffffff" stroke="#d8cfb0" stroke-width="0.5"/>
</svg>
